#!OML:ASF F:\VICON\USERDATA\INSTALL\rory3\rory3.ASF
:FULLY-SPECIFIED
:DEGREES
153
root -0.367583 17.9901 0.116662 -4.48909 1.83381 -4.76403
lowerback 11.8763 -0.887162 2.06099
upperback 0.827445 -0.718867 3.00947
thorax -5.785 -0.367503 2.11999
lowerneck -15.191 -3.12455 -1.48806
upperneck 21.0653 -3.99612 0.0553237
head 9.15754 -1.98332 -0.224203
rclavicle -9.38015e-015 3.53837e-014
rhumerus -32.2001 -22.1306 -75.1035
rradius 20.0524
rwrist 10.6158
rhand -18.2125 25.537
rfingers 7.12502
rthumb 8.06526 -4.28907
lclavicle -9.38015e-015 3.53837e-014
lhumerus -28.3083 -1.42821 83.7159
lradius 29.1561
lwrist 4.40083
lhand -29.4057 28.2315
lfingers 7.12502
lthumb -2.74354 58.1936
rfemur -15.6714 4.91354 30.9289
rtibia 34.8691
rfoot -11.0825 -8.22365
rtoes 6.43906
lfemur -12.4458 5.00209 -13.3766
ltibia 71.6735
lfoot 5.53825 -13.1556
ltoes -10.9611
154
root -0.372081 18.0122 0.279045 -4.42012 1.6529 -4.92908
lowerback 11.7887 -0.768371 2.25735
upperback 0.881503 -0.540596 3.01258
thorax -5.68452 -0.284707 1.97988
lowerneck -15.3424 -3.16693 -1.30163
upperneck 21.2288 -4.05832 -0.128218
head 9.23403 -2.01632 -0.329859
rclavicle -2.33572e-015 1.35174e-014
rhumerus -31.4898 -21.6049 -75.6396
rradius 20.1956
rwrist 10.0214
rhand -18.337 25.2976
rfingers 7.12502
rthumb 7.94513 -4.53304
lclavicle -2.33572e-015 1.35174e-014
lhumerus -28.5284 -1.06429 83.7386
lradius 29.2237
lwrist 4.46042
lhand -29.644 27.1178
lfingers 7.12502
lthumb -2.9737 57.0768
rfemur -15.0101 4.94869 31.2165
rtibia 34.6607
rfoot -11.5334 -8.24986
rtoes 6.03559
lfemur -13.7802 5.35163 -13.2774
ltibia 72.1485
lfoot 3.98909 -12.5717
ltoes -10.537
155
root -0.375432 18.023 0.438873 -4.35457 1.41216 -5.04712
lowerback 11.7587 -0.625106 2.37416
upperback 0.966109 -0.339386 3.01648
thorax -5.58259 -0.188331 1.88289
lowerneck -15.5881 -3.16366 -1.22167
upperneck 21.3839 -4.07548 -0.113715
head 9.33202 -2.01423 -0.346556
rclavicle 2.44754e-015 -1.63003e-014
rhumerus -30.5659 -21.1147 -76.1817
rradius 20.173
rwrist 9.3661
rhand -18.1063 24.9637
rfingers 7.12502
rthumb 8.16777 -4.85843
lclavicle 2.44754e-015 -1.63003e-014
lhumerus -28.4824 -0.70171 83.7925
lradius 28.9031
lwrist 4.70059
lhand -28.8401 26.4055
lfingers 7.12502
lthumb -2.19733 56.3739
rfemur -14.3656 5.11733 31.4673
rtibia 34.4492
rfoot -11.8725 -8.39667
rtoes 5.65038
lfemur -15.1931 5.74243 -13.2366
ltibia 72.4586
lfoot 2.67957 -12.1092
ltoes -9.21916
156
root -0.379354 18.0325 0.600203 -4.31549 0.988542 -5.06787
lowerback 11.8506 -0.404841 2.37313
upperback 0.928398 -0.0426006 2.99826
thorax -5.67812 -0.0430328 1.81726
lowerneck -15.4951 -3.17084 -1.27829
upperneck 21.5155 -4.10205 0.00504931
head 9.36497 -2.01758 -0.299671
rclavicle 1.09083e-014 1.07344e-014
rhumerus -30.0142 -20.4884 -76.612
rradius 20.3937
rwrist 8.91074
rhand -18.0948 24.499
rfingers 7.12502
rthumb 8.17886 -5.32268
lclavicle 1.09083e-014 1.07344e-014
lhumerus -28.6871 -0.531826 83.884
lradius 28.7001
lwrist 5.09251
lhand -27.761 27.9648
lfingers 7.12502
lthumb -1.15506 57.9414
rfemur -13.7536 5.37509 31.6278
rtibia 34.3809
rfoot -12.0647 -8.48397
rtoes 6.73768
lfemur -16.4648 6.2398 -13.2859
ltibia 72.5787
lfoot 1.3069 -11.6817
ltoes -7.81556
157
root -0.377231 18.043 0.767941 -4.29033 0.668334 -4.92912
lowerback 11.9207 -0.208026 2.3475
upperback 0.897018 0.212033 2.87301
thorax -5.75335 0.0807951 1.65844
lowerneck -15.5458 -3.24612 -1.36813
upperneck 21.7751 -4.23764 0.215485
head 9.47343 -2.06265 -0.233626
rclavicle 6.1499e-015 1.59028e-014
rhumerus -29.5166 -20.1488 -76.9764
rradius 20.7058
rwrist 9.04205
rhand -17.9924 22.5701
rfingers 7.12502
rthumb 8.27769 -7.24775
lclavicle 6.1499e-015 1.59028e-014
lhumerus -29.0585 -0.353112 83.8632
lradius 28.7564
lwrist 5.05275
lhand -27.1736 29.0419
lfingers 7.12502
lthumb -0.587787 59.0209
rfemur -13.0141 5.49622 31.5753
rtibia 34.1889
rfoot -12.85 -8.42347
rtoes 6.78831
lfemur -17.5245 6.49856 -13.5795
ltibia 72.4432
lfoot -0.0716334 -11.1441
ltoes -5.32024
158
root -0.372529 18.0252 0.931304 -4.15611 0.476408 -4.88615
lowerback 11.7098 -0.0826128 2.42507
upperback 0.962768 0.371711 2.78721
thorax -5.56669 0.157238 1.49578
lowerneck -15.6941 -3.25483 -1.29256
upperneck 21.8815 -4.26958 0.219576
head 9.53689 -2.06913 -0.252702
rclavicle -3.90115e-015 -3.77691e-014
rhumerus -28.7317 -19.646 -77.5007
rradius 21.0212
rwrist 8.82486
rhand -17.9951 20.7256
rfingers 7.12502
rthumb 8.27507 -9.09237
lclavicle -3.90115e-015 -3.77691e-014
lhumerus -29.2824 -0.209568 83.882
lradius 28.7584
lwrist 5.18545
lhand -26.9116 28.4058
lfingers 7.12502
lthumb -0.334741 58.3853
rfemur -12.4627 5.53482 31.6205
rtibia 34.0303
rfoot -13.4972 -8.47696
rtoes 6.05769
lfemur -18.8168 6.63693 -13.7915
ltibia 72.2794
lfoot -1.5063 -10.4969
ltoes -2.78595
159
root -0.374648 18.0623 1.10284 -4.13714 0.188853 -5.09683
lowerback 11.5388 0.0244997 2.72514
upperback 1.05722 0.540166 2.77372
thorax -5.37026 0.234315 1.28384
lowerneck -15.7135 -3.2285 -1.21495
upperneck 21.912 -4.25473 0.226814
head 9.54936 -2.05452 -0.261801
rclavicle -9.44227e-016 -2.48481e-014
rhumerus -27.9327 -19.0851 -78.0243
rradius 21.1905
rwrist 8.36924
rhand -18.2106 19.5868
rfingers 7.12502
rthumb 8.06707 -10.2392
lclavicle -9.44227e-016 -2.48481e-014
lhumerus -29.4573 -0.0115513 83.852
lradius 28.6497
lwrist 5.35419
lhand -26.6063 27.9804
lfingers 7.12502
lthumb -0.0398065 57.9601
rfemur -11.6161 5.78308 31.9725
rtibia 33.739
rfoot -13.9484 -8.7158
rtoes 5.50794
lfemur -19.7765 6.82003 -13.6828
ltibia 71.7201
lfoot -2.95306 -9.92098
ltoes -3.17325
160
root -0.377515 18.0625 1.26632 -4.07769 -0.0296595 -5.34688
lowerback 11.4708 0.11376 3.00356
upperback 1.07282 0.692201 2.81112
thorax -5.31373 0.303732 1.142
lowerneck -15.6095 -3.25928 -1.24747
upperneck 21.9202 -4.29513 0.246139
head 9.53442 -2.07424 -0.253084
rclavicle 4.2366e-015 1.49089e-014
rhumerus -27.2801 -18.461 -78.4242
rradius 21.4145
rwrist 7.97907
rhand -18.4663 18.3465
rfingers 7.12502
rthumb 7.82029 -11.4889
lclavicle 4.2366e-015 1.49089e-014
lhumerus -29.6396 0.154456 83.9002
lradius 28.2973
lwrist 5.49307
lhand -26.5622 28.2726
lfingers 7.12502
lthumb 0.00279563 58.2523
rfemur -10.9676 6.04705 32.3819
rtibia 33.5948
rfoot -14.2685 -9.09624
rtoes 5.31465
lfemur -20.8958 6.94638 -13.5135
ltibia 71.235
lfoot -4.32495 -9.4477
ltoes -4.66986
161
root -0.376623 18.0545 1.42784 -3.97541 -0.257367 -5.47194
lowerback 11.4174 0.258391 3.19959
upperback 1.05133 0.90557 2.78364
thorax -5.30276 0.404026 0.96931
lowerneck -15.304 -3.33687 -1.23404
upperneck 21.8161 -4.41693 0.279579
head 9.44234 -2.12825 -0.252274
rclavicle 1.43746e-014 -3.97569e-015
rhumerus -26.9989 -17.8411 -78.7697
rradius 22.1686
rwrist 7.48418
rhand -18.5738 16.9568
rfingers 7.12502
rthumb 7.71651 -12.8824
lclavicle 1.43746e-014 -3.97569e-015
lhumerus -29.9128 0.138953 83.986
lradius 28.0804
lwrist 5.51965
lhand -27.3771 26.3258
lfingers 7.12502
lthumb -0.784329 56.3041
rfemur -10.402 6.24 32.6289
rtibia 33.5289
rfoot -14.5715 -9.19793
rtoes 6.07374
lfemur -22.0697 7.07191 -13.5248
ltibia 70.6577
lfoot -5.57183 -8.96135
ltoes -7.08474
162
root -0.368416 18.0363 1.5856 -3.88854 -0.547485 -5.40053
lowerback 11.5 0.416751 3.30512
upperback 1.02797 1.12782 2.66749
thorax -5.36766 0.508788 0.752565
lowerneck -15.3681 -3.3642 -1.21055
upperneck 21.8962 -4.48645 0.382448
head 9.48496 -2.14589 -0.231738
rclavicle 1.40392e-015 2.98177e-015
rhumerus -26.5964 -17.2934 -79.1648
rradius 22.7603
rwrist 7.16154
rhand -18.6253 18.3472
rfingers 7.12502
rthumb 7.66687 -11.4938
lclavicle 1.40392e-015 2.98177e-015
lhumerus -30.1305 0.0374994 84.043
lradius 27.9829
lwrist 5.45366
lhand -27.9117 24.0334
lfingers 7.12502
lthumb -1.30065 54.0092
rfemur -9.94819 6.34497 32.6109
rtibia 33.6617
rfoot -15.1936 -9.16977
rtoes 6.48374
lfemur -23.2855 7.1649 -13.8546
ltibia 70.0045
lfoot -6.04205 -8.27242
ltoes -8.97668
163
root -0.362446 17.9938 1.7398 -3.74653 -0.657216 -5.45411
lowerback 11.6054 0.483287 3.4744
upperback 0.962001 1.24317 2.61139
thorax -5.49013 0.558994 0.579348
lowerneck -15.6924 -3.3435 -1.14701
upperneck 22.0878 -4.47085 0.371473
head 9.61087 -2.13106 -0.252436
rclavicle -1.66482e-015 1.59028e-015
rhumerus -25.9908 -16.7414 -79.5457
rradius 23.0479
rwrist 6.60847
rhand -18.5309 20.618
rfingers 7.12502
rthumb 7.75791 -9.21971
lclavicle -1.66482e-015 1.59028e-015
lhumerus -30.5228 -0.126221 84.1382
lradius 28.1424
lwrist 5.38756
lhand -28.0171 25.4859
lfingers 7.12502
lthumb -1.40242 55.4611
rfemur -9.59215 6.4223 32.7433
rtibia 33.7648
rfoot -15.918 -9.29444
rtoes 5.70836
lfemur -24.5051 7.11188 -13.9914
ltibia 69.3782
lfoot -6.83392 -7.39089
ltoes -5.47337
